<svg version="1.1" id="Layer_1" xmlns="http://www.w3.org/2000/svg" xmlns:xlink="http://www.w3.org/1999/xlink" x="0px" y="0px"
	 width="100%" viewBox="0 0 1024 1024" enable-background="new 0 0 1024 1024" xml:space="preserve">
<path fill="#000000" opacity="1.000000" stroke="none" 
	d="
M873.516602,564.503540 
	C883.125610,576.030884 892.524231,587.272156 901.913269,598.521484 
	C902.873291,599.671753 903.848267,600.820496 904.691223,602.055359 
	C907.162720,605.675476 906.557251,607.098572 902.315369,607.437012 
	C885.681946,608.763977 869.012817,608.304443 852.354858,608.320740 
	C847.385315,608.325623 843.992798,605.235779 841.081055,601.730835 
	C806.914978,560.604492 772.830078,519.410828 738.655945,478.291168 
	C720.665283,456.643982 702.522888,435.122925 684.500854,413.501709 
	C682.163574,410.697571 679.990601,407.728943 678.009949,404.663055 
	C676.145630,401.777100 677.073975,399.740814 680.612610,399.725250 
	C698.109192,399.648376 715.607605,399.573761 733.102295,399.774811 
	C737.672058,399.827301 740.335632,403.614624 742.995911,406.778168 
	C753.072632,418.761230 763.074524,430.807617 773.051514,442.874084 
	C804.469421,480.871643 835.863525,518.889038 867.266296,556.899109 
	C869.280823,559.337524 871.291138,561.779480 873.516602,564.503540 
z"/>
<path fill="#000000" opacity="1.000000" stroke="none" 
	d="
M307.222168,572.159363 
	C297.549103,582.186584 285.163055,584.975952 272.475952,586.103149 
	C258.675110,587.329285 245.141785,585.444153 233.067429,577.930481 
	C217.139603,568.018860 210.354309,552.567261 208.865723,534.729065 
	C207.800644,521.965881 208.379059,509.210449 213.310532,496.891815 
	C221.830673,475.608795 242.789932,465.557922 261.090668,464.669891 
	C272.882324,464.097687 284.401123,465.217255 294.869843,471.342987 
	C307.792145,478.904388 313.984406,490.790558 316.307587,505.108673 
	C317.459625,512.209045 317.423157,519.366394 317.349365,526.526428 
	C317.284058,532.867065 316.123413,534.167786 309.769714,534.185303 
	C287.273926,534.247375 264.777924,534.223206 242.281982,534.226929 
	C234.660477,534.228149 234.561859,534.323792 236.594589,541.760376 
	C241.608185,560.102112 257.144745,566.272400 273.795502,564.326660 
	C281.675812,563.405823 289.058319,560.816772 294.434387,554.361389 
	C294.942291,553.751526 295.703308,553.244751 296.449829,552.961426 
	C298.776550,552.078003 308.609528,555.844238 310.467224,558.407410 
	C313.029968,561.943298 311.760956,565.372620 309.818542,568.661621 
	C309.145020,569.802124 308.248047,570.810730 307.222168,572.159363 
M246.549744,514.647034 
	C260.039917,514.646851 273.530151,514.660706 287.020264,514.631531 
	C289.109192,514.627014 291.353363,515.106323 291.841949,511.811218 
	C293.236359,502.407379 287.754730,492.129974 278.831665,488.729767 
	C268.455353,484.775787 258.117920,485.367218 248.607849,491.168335 
	C240.255707,496.263123 236.219391,504.157104 235.873520,514.042664 
	C239.282471,515.142700 242.459045,514.430359 246.549744,514.647034 
z"/>
<path fill="#000000" opacity="1.000000" stroke="none" 
	d="
M589.307312,573.739990 
	C574.096130,588.012939 546.590576,590.961731 529.053467,580.160583 
	C517.003235,572.738831 513.574585,561.226135 514.679810,547.843689 
	C515.666016,535.902283 521.379639,526.990662 532.320007,521.982300 
	C547.378174,515.088745 563.382141,513.871887 579.668823,515.073914 
	C582.624023,515.292053 585.551514,515.883606 588.444763,516.296082 
	C594.182739,502.712158 585.033691,487.705841 570.179077,486.458527 
	C564.739746,486.001801 559.220764,485.898102 553.891541,487.881561 
	C549.119934,489.657532 545.219727,492.324005 543.755554,497.402466 
	C542.824280,500.632721 540.801758,501.550964 537.795776,501.314880 
	C533.320679,500.963440 528.842712,500.648712 524.368652,500.284485 
	C520.504700,499.969879 520.460754,497.179352 520.864380,494.423523 
	C522.080750,486.118164 526.074463,479.387115 532.888550,474.457397 
	C550.358154,461.818848 578.653931,461.129059 596.618591,472.894623 
	C609.253357,481.169525 613.828857,493.730560 614.228455,507.982880 
	C614.666992,523.627563 614.415283,539.294128 614.305420,554.950134 
	C614.273193,559.540588 615.058411,562.979309 620.705872,562.734558 
	C622.954102,562.637207 623.284729,564.367432 623.613159,566.071289 
	C624.473450,570.533081 624.230164,575.040466 624.042603,579.520569 
	C623.900818,582.906433 621.887817,584.462585 618.408508,584.392334 
	C612.747864,584.277954 607.082886,584.395569 601.419922,584.371338 
	C594.593262,584.342102 593.578186,583.275940 592.444946,576.487000 
	C592.282471,575.513123 594.137024,570.762268 589.307312,573.739990 
M552.113281,535.515381 
	C551.037598,535.958557 549.949463,536.373779 548.888367,536.849548 
	C543.096619,539.446350 539.413513,543.675659 539.443970,550.240540 
	C539.471375,556.139404 544.071533,561.279236 550.558228,563.551025 
	C555.099426,565.141479 559.770142,564.808411 564.387207,564.587402 
	C576.533203,564.006165 586.930237,555.493469 589.336426,544.445923 
	C590.800293,537.724854 589.642395,535.343201 582.991943,534.155396 
	C572.932434,532.358826 562.836914,532.736633 552.113281,535.515381 
z"/>
<path fill="#000000" opacity="1.000000" stroke="none" 
	d="
M419.920227,504.948669 
	C410.999298,522.253540 414.181366,542.582336 427.404938,554.331055 
	C440.765350,566.201355 465.470490,564.091919 476.339111,549.980591 
	C478.804871,546.779236 481.445862,545.425964 485.327423,546.680481 
	C486.589783,547.088501 487.908020,547.319946 489.183411,547.691528 
	C499.585754,550.722168 501.419891,555.755127 494.533417,564.352051 
	C480.286011,582.138123 461.569672,588.928772 439.186035,585.361450 
	C415.448029,581.578064 398.834076,568.517090 392.666412,545.137085 
	C386.080353,520.171143 389.544952,496.782990 409.759766,478.309509 
	C419.461884,469.443085 431.255249,465.321259 444.310944,464.653564 
	C460.712769,463.814819 475.737762,467.264557 488.168274,478.751709 
	C491.863007,482.166016 495.018738,486.016357 497.295746,490.538025 
	C499.200989,494.321381 498.807648,497.283020 494.369690,498.842102 
	C492.174377,499.613312 490.016815,500.496094 487.806793,501.220612 
	C481.921173,503.150146 477.350464,503.529205 472.220886,497.648438 
	C459.823639,483.435730 431.490784,485.396698 419.920227,504.948669 
z"/>
<path fill="#000000" opacity="1.000000" stroke="none" 
	d="
M188.309662,486.064697 
	C189.386581,490.295990 190.366104,494.105438 185.620911,496.334076 
	C180.454315,498.760681 173.626617,499.501099 170.348633,495.465973 
	C162.102463,485.315186 151.117188,483.853394 139.111984,486.495605 
	C132.097015,488.039520 128.244598,492.318481 127.852234,498.675140 
	C127.496681,504.435516 130.484879,508.242920 137.762909,510.687897 
	C148.951813,514.446777 160.424683,517.314026 171.433487,521.661072 
	C187.597290,528.043640 192.963120,536.433472 192.326691,554.910767 
	C191.871475,568.127136 182.807449,579.167542 168.790634,583.301147 
	C152.263885,588.175049 135.881134,587.250000 119.846413,581.235596 
	C110.754066,577.825195 104.403671,571.590698 102.222794,561.727966 
	C101.120300,556.742065 102.176842,554.577332 107.093948,553.072205 
	C109.779671,552.250183 112.588707,551.800049 115.365234,551.314148 
	C118.264725,550.806702 120.755264,551.766418 122.256897,554.289551 
	C125.793961,560.232544 131.371460,563.030273 137.788239,564.093079 
	C145.357132,565.346619 153.064209,565.859497 160.513779,563.392456 
	C165.202866,561.839600 168.531860,558.895508 168.873047,553.361023 
	C169.211304,547.873779 166.501328,544.627258 161.915009,542.379395 
	C152.119247,537.578247 141.293015,535.994812 131.092575,532.460327 
	C129.994812,532.079956 128.860611,531.806030 127.748863,531.464661 
	C107.691116,525.305420 100.143692,511.447784 105.277596,491.075714 
	C109.100380,475.906281 120.131737,469.112640 134.020111,465.992126 
	C147.124344,463.047821 160.149368,464.161163 172.692337,469.300720 
	C180.317764,472.425262 186.059387,477.356598 188.309662,486.064697 
z"/>
<path fill="#000000" opacity="1.000000" stroke="none" 
	d="
M766.889771,530.134827 
	C770.019104,534.059570 773.010254,537.643433 775.797791,541.379150 
	C779.957764,546.953796 779.945068,548.176575 775.319580,553.409241 
	C758.996521,571.874451 742.604858,590.278992 726.236755,608.704346 
	C725.683655,609.326904 725.077454,609.903259 724.538635,610.537292 
	C710.264954,627.332336 713.613647,624.063477 693.664124,624.342773 
	C682.504700,624.499023 671.341187,624.406616 660.180115,624.337097 
	C658.301697,624.325439 655.882874,625.138306 654.841797,622.768738 
	C653.838013,620.484070 655.212219,618.594910 656.664856,616.916199 
	C668.212524,603.571045 679.811829,590.270386 691.317627,576.889282 
	C708.361572,557.067322 725.628845,537.447632 743.619019,518.473572 
	C749.325195,512.455444 750.455994,512.347778 756.320068,518.336365 
	C759.927795,522.020630 763.224182,526.009705 766.889771,530.134827 
z"/>
<path fill="#000000" opacity="1.000000" stroke="none" 
	d="
M823.491089,484.559387 
	C813.833862,475.066711 805.754517,464.708771 797.813904,454.223328 
	C795.416199,451.057220 795.460327,448.619385 798.253357,445.515747 
	C816.620422,425.106567 834.827942,404.553589 853.048279,384.012695 
	C857.619873,378.858795 862.968933,376.289551 870.129822,376.536133 
	C882.599548,376.965576 895.094604,376.659637 907.579041,376.664185 
	C908.910645,376.664673 910.254700,376.567078 911.571289,376.711823 
	C914.493713,377.033051 918.322205,376.561096 919.658142,379.406128 
	C921.040894,382.350769 917.573059,384.273529 915.802856,386.296417 
	C888.846130,417.100769 861.723022,447.757538 834.104675,477.972656 
	C832.309448,479.936584 830.611633,481.989288 828.827209,483.963348 
	C827.377930,485.566650 825.801575,486.718719 823.491089,484.559387 
z"/>
<path fill="#000000" opacity="1.000000" stroke="none" 
	d="
M339.541382,485.998718 
	C339.572937,466.085266 339.646423,446.614929 339.596985,427.144867 
	C339.588531,423.804474 341.149536,422.784546 344.178192,422.832184 
	C349.171783,422.910736 354.182037,423.077240 359.158569,422.771759 
	C364.089020,422.469116 365.369629,424.626678 365.352478,429.248169 
	C365.217102,465.711090 365.275635,502.174713 365.276093,538.638123 
	C365.276184,544.798584 365.394135,550.961731 365.246735,557.118591 
	C365.159302,560.770569 366.267303,562.990051 370.305176,562.658264 
	C374.217102,562.336853 375.646423,564.584412 375.999268,568.011108 
	C376.033386,568.342346 376.057556,568.674500 376.087372,569.006165 
	C377.469696,584.373230 375.097961,586.918518 359.810822,585.109802 
	C344.764404,583.329651 341.612671,583.524292 339.890137,564.279602 
	C338.169495,545.056458 338.809601,525.695251 339.462463,506.389496 
	C339.687286,499.741943 338.643280,493.087952 339.541382,485.998718 
z"/>
</svg>